HIERARCHY
ROOT Bip001_Pelvis
{
  OFFSET 7.937 94.8971 -8.5489
  CHANNELS 6 Xposition Yposition Zposition Zrotation Xrotation Yrotation
  JOINT Bip001_Spine
  {
    OFFSET 1.44608e-005 10.4157 -0.0118244
    CHANNELS 3 Zrotation Xrotation Yrotation
    JOINT Bip001_L_Thigh
    {
      OFFSET 11.2582 -10.4157 0.0118432
      CHANNELS 3 Zrotation Xrotation Yrotation
      JOINT Bip001_L_Calf
      {
        OFFSET -0.720717 -44.8687 0.366937
        CHANNELS 3 Zrotation Xrotation Yrotation
        JOINT Bip001_L_Foot
        {
          OFFSET -0.664439 -41.3745 -3.62995
          CHANNELS 3 Zrotation Xrotation Yrotation
          JOINT Bip001_L_Toe0
          {
            OFFSET 0.0541047 -10.4146 13.4033
            CHANNELS 3 Zrotation Xrotation Yrotation
            End Site
            {
              OFFSET -1.04503e-005 0 7.70137
            }
          }
        }
      }
    }
    JOINT Bip001_R_Thigh
    {
      OFFSET -11.2582 -10.4156 0.0118122
      CHANNELS 3 Zrotation Xrotation Yrotation
      JOINT Bip001_R_Calf
      {
        OFFSET 0.72059 -44.8687 0.36676
        CHANNELS 3 Zrotation Xrotation Yrotation
        JOINT Bip001_R_Foot
        {
          OFFSET 0.664321 -41.3745 -3.62979
          CHANNELS 3 Zrotation Xrotation Yrotation
          JOINT Bip001_R_Toe0
          {
            OFFSET -0.05417 -10.4146 13.4033
            CHANNELS 3 Zrotation Xrotation Yrotation
            End Site
            {
              OFFSET -1.04873e-005 0 7.70137
            }
          }
        }
      }
    }
    JOINT Bip001_Spine1
    {
      OFFSET 1.90638e-005 14.8539 1.10727
      CHANNELS 3 Zrotation Xrotation Yrotation
      JOINT Bip001_Spine2
      {
        OFFSET 2.28934e-005 14.7848 -1.7233
        CHANNELS 3 Zrotation Xrotation Yrotation
        JOINT Bip001_Neck
        {
          OFFSET 2.24514e-005 15.6905 -0.498826
          CHANNELS 3 Zrotation Xrotation Yrotation
          JOINT Bip001_L_Clavicle
          {
            OFFSET 6.17691 -0.000591152 0.00852867
            CHANNELS 3 Zrotation Xrotation Yrotation
            JOINT Bip001_L_UpperArm
            {
              OFFSET 11.773 -0.0611878 0.00197697
              CHANNELS 3 Zrotation Xrotation Yrotation
              JOINT Bip001_L_Forearm
              {
                OFFSET 26.4515 0.0817568 -2.19579
                CHANNELS 3 Zrotation Xrotation Yrotation
                JOINT Bip001_L_Hand
                {
                  OFFSET 32.8677 0.156744 1.67112
                  CHANNELS 3 Zrotation Xrotation Yrotation
                  JOINT Bip001_L_Finger0
                  {
                    OFFSET 6.16268 -2.25226 6.01674
                    CHANNELS 3 Zrotation Xrotation Yrotation
                    End Site
                    {
                      OFFSET 4.30499 -1.46662 0.618148
                    }
                  }
                  JOINT Bip001_L_Finger1
                  {
                    OFFSET 11.2957 -0.718374 -0.201963
                    CHANNELS 3 Zrotation Xrotation Yrotation
                    End Site
                    {
                      OFFSET 6.31952 -0.405163 -0.0802303
                    }
                  }
                }
              }
            }
          }
          JOINT Bip001_R_Clavicle
          {
            OFFSET -6.17691 -0.000574027 0.00851165
            CHANNELS 3 Zrotation Xrotation Yrotation
            JOINT Bip001_R_UpperArm
            {
              OFFSET -11.773 -0.0611516 0.00194365
              CHANNELS 3 Zrotation Xrotation Yrotation
              JOINT Bip001_R_Forearm
              {
                OFFSET -26.4514 0.0822334 -2.19736
                CHANNELS 3 Zrotation Xrotation Yrotation
                JOINT Bip001_R_Hand
                {
                  OFFSET -32.8677 0.156817 1.67144
                  CHANNELS 3 Zrotation Xrotation Yrotation
                  JOINT Bip001_R_Finger0
                  {
                    OFFSET -6.1627 -2.25224 6.0167
                    CHANNELS 3 Zrotation Xrotation Yrotation
                    End Site
                    {
                      OFFSET -4.30499 -1.46662 0.618134
                    }
                  }
                  JOINT Bip001_R_Finger1
                  {
                    OFFSET -11.2958 -0.718344 -0.201994
                    CHANNELS 3 Zrotation Xrotation Yrotation
                    End Site
                    {
                      OFFSET -6.31952 -0.405146 -0.0802475
                    }
                  }
                }
              }
            }
          }
          JOINT Bip001_Head
          {
            OFFSET 1.11782e-005 11.4912 2.09908
            CHANNELS 3 Zrotation Xrotation Yrotation
            End Site
            {
              OFFSET 2.95144e-005 21.2823 -2.83069e-005
            }
          }
        }
      }
    }
  }
}
MOTION
Frames:	8
Frame Time:	0.04
7.22909 95.5374 -8.68594 -0.0704867 -1.09297 3.09211 0.329628 1.99992 -0.185161 5.43388 -9.25991 8.43991 -0.865525 14.5072 -2.03616 -3.28059 -5.2847 -0.319171 0.693008 -9.83188 0.343236 -8.01138 -6.68164 -0.18366 0.701277 14.73 0.50875 1.34267 -8.17562 -10.6252 -1.32702 -11.4667 0.979553 0.473536 3.99883 -0.390982 0.473535 3.99883 -0.390981 1.11215 12.6947 -1.68496 -30.3225 -7.03261 -14.3752 -49.9327 42.6616 4.7422 13.1054 2.75419 -23.7495 -3.55944 -0.210333 -1.24425 3.18055e-015 -3.18055e-015 -1.59028e-015 3.18055e-015 0 7.95139e-016 34.6609 -4.53473 16.5572 53.8785 31.6871 -20.0159 -1.77204 -14.375 12.5329 14.6464 0.770582 -10.4635 0 0 -0 0 3.18056e-015 -0 -3.24797 12.7458 -0.168379 
7.24639 95.5259 -8.68802 -0.102581 -1.15406 2.86373 0.343261 1.99892 -0.212647 5.42105 -9.20866 8.36883 -0.820594 14.6114 -2.06829 -3.2995 -5.40755 -0.0434446 0.703582 -9.83134 0.405179 -8.00214 -6.70413 -0.172049 0.674121 14.7703 0.6235 1.37397 -8.17031 -10.4952 -1.33685 -11.4667 0.985327 0.498492 3.99678 -0.446721 0.498492 3.99678 -0.446721 0.858066 12.7904 -1.42212 -30.0532 -6.93193 -14.8219 -49.9552 42.3921 4.69298 13.1053 2.80976 -23.6305 -3.65615 -0.210331 -1.27214 1.59028e-015 3.18055e-015 7.95139e-016 1.59028e-015 0 -0 34.7806 -4.64195 16.6893 51.5966 29.9939 -17.5599 -0.549851 -19.6175 12.5441 14.7511 2.01685 -12.2576 -0 -3.18055e-015 -0 -1.59028e-015 3.18056e-015 3.18055e-015 -3.00464 12.7084 -0.0886817 
7.26754 95.5261 -8.68446 -0.114721 -1.21377 2.67158 0.323636 1.9818 -0.178495 5.46907 -9.10412 8.35101 -0.894868 14.6423 -1.86569 -3.27577 -5.44515 -0.046931 0.700217 -9.82973 0.385535 -8.00314 -6.65309 -0.233474 0.677695 14.7396 0.765166 1.38692 -8.13753 -10.4235 -1.3467 -11.4666 1.00205 0.458316 3.96279 -0.378177 0.466871 3.96278 -0.377771 0.958339 12.7298 -1.44937 -30.1426 -6.79809 -15.0286 -49.6146 42.3836 4.47476 13.1329 2.72944 -23.7596 -3.60806 -0.20576 -1.22958 1.59028e-015 0 -0 1.59028e-015 6.36111e-015 1.59028e-015 34.8856 -4.43601 16.9217 49.8479 30.763 -15.6772 -0.326496 -19.2105 12.1696 13.3131 1.672 -11.3387 0 3.18055e-015 -0 0 0 -3.18055e-015 -2.98471 12.7943 -0.0804845 
7.26992 95.5382 -8.67099 -0.151075 -1.25273 2.55979 0.318773 1.94575 -0.129126 5.56455 -8.97811 8.29984 -1.01986 14.6052 -1.6952 -3.23378 -5.44284 -0.0807283 0.698862 -9.82787 0.377669 -7.95703 -6.52968 -0.115209 0.698212 14.6023 0.686449 1.39785 -8.05975 -10.4061 -1.36182 -11.4666 1.01669 0.442998 3.89091 -0.278127 0.442601 3.89093 -0.278275 1.04043 12.5866 -1.56658 -30.2326 -6.6829 -14.9791 -49.2545 42.2937 4.16057 13.2171 2.51096 -24.0532 -3.50399 -0.204795 -1.35875 -4.41391e-032 3.18055e-015 7.95139e-016 -4.41391e-032 3.18056e-015 7.95139e-016 34.829 -4.17652 17.1102 48.5181 33.0719 -14.0522 -0.680527 -20.4962 13.653 13.2502 0.897101 -12.6275 -1.76556e-031 -3.18055e-015 -3.18055e-015 1.59028e-015 0 -6.36111e-015 -3.0273 12.8586 -0.149177 
7.05736 95.5293 -8.61114 -0.585085 -1.27113 2.6852 0.377461 1.89293 -0.0988157 6.25356 -9.18091 8.72965 -1.17291 15.212 -2.11508 -3.23346 -5.74761 -0.22577 0.698618 -9.82673 0.376286 -7.25482 -6.22431 0.0395169 0.397646 14.1986 0.68833 1.32556 -7.8749 -10.6543 -1.29531 -11.4667 0.985267 0.567149 3.78525 -0.218919 0.567149 3.78525 -0.218917 1.01721 12.367 -1.6896 -30.2172 -6.54013 -14.791 -48.7069 41.9631 3.5446 13.1197 1.8978 -24.4659 -3.38605 -0.225584 -1.26041 1.59028e-015 6.36111e-015 -3.97569e-015 6.17947e-031 6.36111e-015 -5.56597e-015 34.797 -3.83026 17.3252 46.8658 34.2946 -12.42 -2.16821 -17.2456 15.8104 12.2151 0.9061 -12.8417 -0 -3.18055e-015 -0 1.59028e-015 -6.36111e-015 1.59028e-015 -3.00249 12.9387 -0.28718 
7.34107 95.5284 -8.65817 -0.0308109 -1.34339 2.76793 0.234632 1.84825 -0.0101612 5.41605 -8.80586 8.30302 -0.884654 14.5536 -1.89577 -3.22548 -5.39288 -0.231369 0.696482 -9.83302 0.363536 -8.10645 -6.3248 -0.567271 0.733508 14.7558 0.730772 1.43602 -8.17537 -10.2897 -1.36606 -11.4579 1.01395 0.271412 3.69641 -0.0366408 0.271412 3.69642 -0.0366418 1.01263 12.0004 -1.82948 -30.1523 -6.218 -14.7082 -48.1175 41.7394 2.90511 13.1777 1.82363 -24.8721 -3.26817 -0.211325 -1.44473 -0 0 6.36111e-015 -1.59028e-015 0 4.77083e-015 34.6482 -3.47989 17.228 45.7785 34.2612 -11.8209 -5.00588 -14.6764 21.6581 11.7368 1.41401 -14.07 -0 -3.18055e-015 -0 -7.95139e-016 -3.18056e-015 -0 -3.00268 12.9213 -0.429296 
7.31848 95.514 -8.62563 -0.0324164 -1.32327 3.12038 0.189214 1.76179 0.0400436 5.48351 -8.85624 8.34408 -0.867195 14.6914 -2.13033 -3.2104 -5.41294 -0.407657 0.690221 -9.83979 0.326654 -8.04172 -6.16851 -2.56242 0.201025 14.8646 1.74728 1.52807 -8.26114 -9.62747 -1.31221 -11.4801 1.01875 0.185638 3.5236 0.0661362 0.185638 3.52361 0.0661361 0.988851 11.5415 -1.87247 -30.0242 -5.80486 -14.582 -47.833 41.4893 2.54024 13.3028 1.59722 -25.3955 -3.14393 -0.0948289 -1.99091 1.59028e-015 3.18055e-015 1.59028e-015 -0 0 3.18055e-015 34.2225 -3.20814 16.9061 45.1806 33.8789 -11.6797 -9.03561 -12.6841 29.9756 10.4353 1.94326 -13.7336 -1.98785e-016 -6.36111e-015 -7.95139e-016 7.95139e-016 -3.18056e-015 -1.98785e-016 -3.01517 12.6362 -0.486263 
7.28453 95.5173 -8.57027 -0.0348229 -1.30286 3.51799 0.144582 1.66424 0.0739251 5.54014 -8.81853 8.28692 -0.857086 14.6753 -2.36619 -3.20571 -5.37267 -0.5319 0.687 -9.84769 0.307563 -7.94216 -5.91199 -1.24025 0.577473 14.7466 0.843013 1.40781 -8.33099 -10.4569 -1.33098 -11.4502 0.954091 0.0962252 3.32851 0.135848 0.0962254 3.32851 0.135847 0.825592 10.883 -1.80595 -29.8386 -5.183 -14.37 -47.2821 41.4049 1.99504 13.3415 1.49102 -25.7758 -3.24073 -0.12659 -1.98562 -6.36111e-015 9.54166e-015 -1.59028e-015 -6.36111e-015 6.36111e-015 -0 33.9 -2.70156 16.6719 44.3003 31.9007 -12.0089 -13.3739 -10.8516 41.765 6.41048 2.677 -12.1935 1.76556e-031 -6.36111e-015 1.59028e-015 4.77083e-015 -3.18056e-015 -0 -3.00488 12.274 -0.498208 
